<svg width="124" height="24" viewBox="0 0 124 24" fill="none" xmlns="http://www.w3.org/2000/svg">
<path d="M26.2601 2.00482C24.2553 1.07475 22.1058 0.392696 19.8737 0C19.605 0.496036 19.2743 1.17809 19.0469 1.69479C16.6701 1.34343 14.2933 1.34343 11.9578 1.69479C11.7304 1.15742 11.3997 0.496036 11.131 0C8.87819 0.392696 6.7287 1.07475 4.72389 2.00482C0.672921 8.1226 -0.422492 14.075 0.135549 19.9655C2.82241 21.9703 5.4266 23.1897 7.96879 23.9751C8.6095 23.107 9.16755 22.177 9.64291 21.2056C8.71285 20.8542 7.82411 20.4202 6.99739 19.9241C7.22474 19.7588 7.43142 19.5934 7.6381 19.4074C12.7431 21.7843 18.2822 21.7843 23.3253 19.4074C23.5319 19.5934 23.7593 19.7588 23.966 19.9241C23.1186 20.4202 22.2298 20.8542 21.3204 21.2056C21.7958 22.177 22.3745 23.107 22.9946 23.9751C25.5574 23.169 28.1616 21.9703 30.8485 19.9448C31.5099 13.145 29.7531 7.23387 26.2601 2.00482ZM10.3456 16.3485C8.81619 16.3485 7.55543 14.9224 7.55543 13.1863C7.55543 11.4502 8.77485 10.0241 10.3456 10.0241C11.8957 10.0241 13.1565 11.4502 13.1358 13.1863C13.1358 14.9224 11.8957 16.3485 10.3456 16.3485ZM20.6384 16.3485C19.1089 16.3485 17.8482 14.9224 17.8482 13.1863C17.8482 11.4502 19.0676 10.0241 20.6384 10.0241C22.1885 10.0241 23.4493 11.4502 23.4286 13.1863C23.4286 14.9224 22.2092 16.3485 20.6384 16.3485ZM41.6579 6.11778H48.3131C49.9252 6.11778 51.2686 6.3658 52.3847 6.8825C53.5008 7.39921 54.3275 8.10193 54.8856 9.01133C55.4436 9.92073 55.7123 10.9748 55.7123 12.1322C55.7123 13.2896 55.4229 14.3231 54.8442 15.2531C54.2655 16.1832 53.3975 16.9272 52.2194 17.4646C51.0413 18.002 49.5738 18.2913 47.8377 18.2913H41.6579V6.11778ZM47.755 15.2118C48.8298 15.2118 49.6565 14.9431 50.2559 14.3851C50.8346 13.827 51.124 13.083 51.124 12.1322C51.124 11.2435 50.8553 10.5408 50.3386 10.0241C49.8219 9.4867 49.0365 9.23868 48.0031 9.23868H45.9156V15.2325H47.755V15.2118ZM65.6537 18.2913C64.7236 18.0433 63.8969 17.692 63.1529 17.2373V14.3437C63.7109 14.7778 64.4549 15.1498 65.4057 15.4391C66.3358 15.7285 67.2452 15.8732 68.1339 15.8732C68.5472 15.8732 68.8573 15.8112 69.064 15.7078C69.2706 15.6045 69.374 15.4598 69.374 15.3151C69.374 15.1498 69.312 15.0051 69.2086 14.8811C69.0846 14.7571 68.8779 14.6744 68.5472 14.5917L66.5011 14.1164C65.323 13.8477 64.4963 13.455 64.0002 12.959C63.5042 12.4629 63.2562 11.8222 63.2562 11.0161C63.2562 10.3341 63.4629 9.75538 63.8969 9.25934C64.3309 8.76331 64.951 8.37062 65.7364 8.10193C66.5424 7.83325 67.4725 7.68857 68.5266 7.68857C69.4773 7.68857 70.3661 7.79191 71.1514 7.99859C71.9575 8.20527 72.5982 8.47396 73.1356 8.80465V11.5328C72.5982 11.2022 71.9782 10.9541 71.2754 10.7475C70.5727 10.5614 69.8493 10.4581 69.1053 10.4581C68.0305 10.4581 67.4932 10.6441 67.4932 11.0161C67.4932 11.1815 67.5758 11.3262 67.7412 11.4088C67.9065 11.4915 68.2166 11.5949 68.6506 11.6775L70.366 11.9875C71.4821 12.1942 72.3089 12.5249 72.8669 13.021C73.4043 13.517 73.6936 14.2404 73.6936 15.2118C73.6936 16.2659 73.2389 17.1133 72.3295 17.7333C71.4201 18.3533 70.1387 18.6634 68.4852 18.6634C67.5345 18.6634 66.5838 18.5394 65.6537 18.2913ZM77.7446 17.9193C76.7732 17.4233 76.0291 16.7619 75.5331 15.9352C75.0371 15.1084 74.789 14.1577 74.789 13.1036C74.789 12.0496 75.0371 11.1195 75.5538 10.2928C76.0705 9.46603 76.8145 8.82531 77.8066 8.34995C78.7987 7.87458 79.9768 7.64723 81.3615 7.64723C83.077 7.64723 84.4824 8.01925 85.6192 8.74264V11.9255C85.2265 11.6569 84.7511 11.4295 84.2344 11.2435C83.697 11.0781 83.139 10.9748 82.5396 10.9748C81.4855 10.9748 80.6588 11.1815 80.0594 11.5742C79.46 11.9669 79.1707 12.4836 79.1707 13.1243C79.1707 13.7443 79.4601 14.261 80.0388 14.6744C80.6175 15.0671 81.4649 15.2738 82.5603 15.2738C83.1183 15.2738 83.697 15.1911 84.2344 15.0258C84.7924 14.8604 85.2678 14.6537 85.6605 14.4057V17.4853C84.3997 18.25 82.953 18.6427 81.2995 18.6427C79.9147 18.6634 78.716 18.4154 77.7446 17.9193ZM89.8768 17.9193C88.8847 17.4233 88.1407 16.7619 87.624 15.9145C87.1073 15.0671 86.8386 14.1164 86.8386 13.083C86.8386 12.0289 87.0866 11.0988 87.624 10.2928C88.1407 9.46603 88.8847 8.82532 89.8768 8.37062C90.8482 7.89525 92.0263 7.6679 93.3697 7.6679C94.7132 7.6679 95.8913 7.89525 96.8627 8.37062C97.8341 8.84598 98.5781 9.46603 99.0948 10.2928C99.6115 11.0988 99.8596 12.0496 99.8596 13.1036C99.8596 14.1577 99.6115 15.0878 99.0948 15.9352C98.5781 16.7826 97.8341 17.4439 96.842 17.94C95.8499 18.436 94.6925 18.6634 93.3491 18.6634C92.0056 18.6634 90.8482 18.4154 89.8768 17.9193ZM95.0439 14.8398C95.4572 14.4264 95.6639 13.8477 95.6639 13.1656C95.6639 12.4836 95.4572 11.9049 95.0439 11.5122C94.6305 11.0988 94.0725 10.8921 93.3491 10.8921C92.6257 10.8921 92.047 11.0988 91.6336 11.5122C91.2202 11.9255 91.0136 12.4836 91.0136 13.1656C91.0136 13.8477 91.2202 14.4264 91.6336 14.8398C92.047 15.2531 92.6257 15.4805 93.3491 15.4805C94.0725 15.4805 94.6305 15.2531 95.0439 14.8398ZM110.111 8.30861V12.0702C109.677 11.7809 109.119 11.6362 108.416 11.6362C107.507 11.6362 106.804 11.9255 106.308 12.4836C105.812 13.0416 105.564 13.9304 105.564 15.1084V18.312H101.389V8.12259H105.481V11.3675C105.709 10.1894 106.081 9.30068 106.577 8.74264C107.073 8.1846 107.734 7.89525 108.52 7.89525C109.16 7.89525 109.677 8.01926 110.111 8.30861ZM124 5.76642V18.312H119.825V16.0385C119.474 16.9066 118.936 17.5473 118.213 18.002C117.49 18.4567 116.601 18.6634 115.547 18.6634C114.596 18.6634 113.769 18.436 113.067 17.9607C112.364 17.4853 111.826 16.8446 111.434 16.0178C111.062 15.1911 110.855 14.2817 110.855 13.2276C110.834 12.1529 111.041 11.2022 111.454 10.3548C111.868 9.50737 112.446 8.84598 113.211 8.37062C113.976 7.89525 114.823 7.64723 115.795 7.64723C117.779 7.64723 119.122 8.53596 119.804 10.2928V5.74575H124V5.76642ZM119.205 14.7571C119.639 14.3437 119.846 13.7857 119.846 13.1036C119.846 12.4629 119.639 11.9255 119.226 11.5122C118.812 11.0988 118.234 10.8921 117.531 10.8921C116.828 10.8921 116.27 11.0988 115.836 11.5122C115.423 11.9255 115.195 12.4629 115.195 13.1243C115.195 13.7857 115.402 14.3231 115.836 14.7364C116.27 15.1498 116.807 15.3565 117.51 15.3565C118.213 15.3978 118.771 15.1911 119.205 14.7571ZM59.2259 9.19734C60.3833 9.19734 61.3134 8.34995 61.3134 7.2752C61.3134 6.20046 60.3833 5.35306 59.2259 5.35306C58.0685 5.35306 57.1384 6.20046 57.1384 7.2752C57.1384 8.34995 58.0685 9.19734 59.2259 9.19734ZM57.1384 10.5201C58.4198 11.0781 59.9906 11.0988 61.3134 10.5201V18.374H57.1384V10.5201Z" fill="white"/>
</svg>
